<?xml version="1.0" encoding="utf-8"?>
<!-- Generator: Adobe Illustrator 16.0.0, SVG Export Plug-In . SVG Version: 6.00 Build 0)  -->
<!DOCTYPE svg PUBLIC "-//W3C//DTD SVG 1.1//EN" "http://www.w3.org/Graphics/SVG/1.1/DTD/svg11.dtd">
<svg version="1.1" id="Layer_1" xmlns="http://www.w3.org/2000/svg" xmlns:xlink="http://www.w3.org/1999/xlink" x="0px" y="0px"
	 width="43.067px" height="43.067px" viewBox="0 0 43.067 43.067" enable-background="new 0 0 43.067 43.067" xml:space="preserve">
<path fill="#6D6C6C" d="M21.534,0C9.641,0,0,9.641,0,21.534s9.641,21.533,21.534,21.533c11.892,0,21.534-9.641,21.534-21.533
	S33.426,0,21.534,0z M19.308,33.116c-0.275,0.276-0.636,0.414-0.998,0.414c-0.361,0-0.722-0.138-0.998-0.414
	c-0.551-0.551-0.551-1.444,0-1.995l9.588-9.587l-9.588-9.587c-0.551-0.551-0.551-1.445,0-1.997c0.552-0.551,1.445-0.551,1.996,0
	l11.583,11.583L19.308,33.116z"/>
</svg>
