<?xml version="1.0" encoding="utf-8"?>
<!-- Generator: Adobe Illustrator 16.0.0, SVG Export Plug-In . SVG Version: 6.00 Build 0)  -->
<!DOCTYPE svg PUBLIC "-//W3C//DTD SVG 1.1//EN" "http://www.w3.org/Graphics/SVG/1.1/DTD/svg11.dtd">
<svg version="1.1" id="Layer_1" xmlns="http://www.w3.org/2000/svg" xmlns:xlink="http://www.w3.org/1999/xlink" x="0px" y="0px"
	 width="28.347px" height="28.347px" viewBox="0 0 28.347 28.347" enable-background="new 0 0 28.347 28.347" xml:space="preserve">
<g>
	<g>
		<path fill="#A4A9AD" d="M14.174,0.999c7.264,0,13.173,5.91,13.173,13.173s-5.909,13.173-13.173,13.173S1,21.436,1,14.172
			S6.91,0.999,14.174,0.999 M14.174-0.001C6.346-0.001,0,6.345,0,14.172c0,7.827,6.346,14.173,14.174,14.173
			s14.173-6.347,14.173-14.173C28.347,6.345,22.002-0.001,14.174-0.001L14.174-0.001z"/>
	</g>
	<g>
		<polyline fill="none" stroke="#A4A9AD" stroke-linecap="round" stroke-miterlimit="10" points="13.361,6.153 20.742,13.534 
			13.361,20.916 		"/>
		
			<line fill="none" stroke="#A4A9AD" stroke-linecap="round" stroke-miterlimit="10" x1="20.742" y1="13.534" x2="5.248" y2="13.534"/>
	</g>
</g>
</svg>
