<?xml version="1.0" encoding="utf-8"?>
<!-- Generator: Adobe Illustrator 16.0.0, SVG Export Plug-In . SVG Version: 6.00 Build 0)  -->
<!DOCTYPE svg PUBLIC "-//W3C//DTD SVG 1.1//EN" "http://www.w3.org/Graphics/SVG/1.1/DTD/svg11.dtd">
<svg version="1.1" id="Layer_1" xmlns="http://www.w3.org/2000/svg" xmlns:xlink="http://www.w3.org/1999/xlink" x="0px" y="0px"
	 width="28.347px" height="28.347px" viewBox="0 0 28.347 28.347" enable-background="new 0 0 28.347 28.347" xml:space="preserve">
<g>
	<g>
		<path fill="#A4A9AD" d="M14.173,1c7.264,0,13.174,5.909,13.174,13.172c0,7.264-5.91,13.174-13.174,13.174
			S1.001,21.436,1.001,14.171C1.001,6.908,6.909,1,14.173,1 M14.173,0C6.347,0,0.001,6.345,0.001,14.171
			c0,7.828,6.346,14.174,14.172,14.174c7.828,0,14.174-6.346,14.174-14.174C28.347,6.345,22.001,0,14.173,0L14.173,0z"/>
	</g>
	<g>
		
			<line fill="none" stroke="#A4A9AD" stroke-linecap="round" stroke-miterlimit="10" x1="7.427" y1="7.425" x2="20.919" y2="20.918"/>
		
			<line fill="none" stroke="#A4A9AD" stroke-linecap="round" stroke-miterlimit="10" x1="7.429" y1="20.918" x2="20.919" y2="7.425"/>
	</g>
</g>
</svg>
