<?xml version="1.0" encoding="utf-8"?>
<!-- Generator: Adobe Illustrator 16.0.0, SVG Export Plug-In . SVG Version: 6.00 Build 0)  -->
<!DOCTYPE svg PUBLIC "-//W3C//DTD SVG 1.1//EN" "http://www.w3.org/Graphics/SVG/1.1/DTD/svg11.dtd">
<svg version="1.1" id="Layer_1" xmlns="http://www.w3.org/2000/svg" xmlns:xlink="http://www.w3.org/1999/xlink" x="0px" y="0px"
	 width="33.758px" height="33.758px" viewBox="0 0 33.758 33.758" enable-background="new 0 0 33.758 33.758" xml:space="preserve">
<path fill="#333E48" d="M16.879,0C7.557,0,0,7.557,0,16.879c0,9.321,7.557,16.879,16.879,16.879c9.321,0,16.879-7.558,16.879-16.879
	C33.758,7.557,26.2,0,16.879,0z M21.33,9.422c-0.383-0.147-0.885-0.265-1.532-0.265c-1.798,0-2.417,1.502-2.417,3.27v0.737h3.153
	v2.71h-3.123v11.639h-3.624V15.875h-1.945v-2.71h1.945v-0.619c0-1.856,0.5-3.712,1.738-4.892c1.061-1.001,2.504-1.384,3.742-1.384
	c0.973,0,1.738,0.147,2.328,0.354L21.33,9.422z"/>
</svg>
