<?xml version="1.0" encoding="utf-8"?>
<!-- Generator: Adobe Illustrator 16.0.0, SVG Export Plug-In . SVG Version: 6.00 Build 0)  -->
<!DOCTYPE svg PUBLIC "-//W3C//DTD SVG 1.1//EN" "http://www.w3.org/Graphics/SVG/1.1/DTD/svg11.dtd">
<svg version="1.1" id="Layer_1" xmlns="http://www.w3.org/2000/svg" xmlns:xlink="http://www.w3.org/1999/xlink" x="0px" y="0px"
	 width="33.758px" height="33.758px" viewBox="0 0 33.758 33.758" enable-background="new 0 0 33.758 33.758" xml:space="preserve">
<path fill="#333E48" d="M16.879,0C7.557,0,0,7.557,0,16.879s7.557,16.879,16.879,16.879c9.321,0,16.879-7.557,16.879-16.879
	S26.2,0,16.879,0z M16.879,27.827c-1.651,0-3.326-0.013-4.977-0.038c-1.546-0.027-3.018-0.662-4.145-1.79s-1.762-2.599-1.789-4.142
	c-0.051-3.304-0.051-6.653,0-9.955c0.027-1.546,0.662-3.018,1.789-4.145s2.599-1.763,4.143-1.79
	c1.652-0.025,3.327-0.038,4.979-0.038c1.65,0,3.324,0.013,4.977,0.038c1.546,0.027,3.017,0.663,4.145,1.79
	c1.127,1.127,1.762,2.598,1.789,4.142c0.051,3.304,0.051,6.653,0,9.955C27.762,23.401,27.127,24.872,26,26
	c-1.128,1.127-2.599,1.763-4.143,1.79C20.203,27.814,18.529,27.827,16.879,27.827z M16.879,7.872c-1.642,0-3.306,0.013-4.947,0.038
	c-2.143,0.037-3.985,1.879-4.022,4.024c-0.049,3.281-0.049,6.609,0,9.892c0.037,2.143,1.88,3.985,4.024,4.022
	c1.64,0.025,3.304,0.038,4.945,0.038s3.306-0.013,4.947-0.038c2.143-0.037,3.984-1.879,4.021-4.024c0.05-3.281,0.05-6.609,0-9.892
	c-0.037-2.143-1.879-3.985-4.023-4.022C20.185,7.885,18.521,7.872,16.879,7.872z M16.879,22.403c-3.046,0-5.524-2.478-5.524-5.524
	c0-3.046,2.479-5.524,5.524-5.524s5.524,2.478,5.524,5.524C22.403,19.925,19.925,22.403,16.879,22.403z M16.879,13.295
	c-1.976,0-3.582,1.608-3.582,3.583c0,1.976,1.606,3.583,3.582,3.583c1.975,0,3.582-1.607,3.582-3.583
	C20.461,14.903,18.854,13.295,16.879,13.295z M24.12,11.111c0,0.742-0.602,1.344-1.345,1.344c-0.741,0-1.343-0.602-1.343-1.344
	s0.602-1.344,1.343-1.344C23.519,9.767,24.12,10.369,24.12,11.111z"/>
</svg>
