<?xml version="1.0" encoding="utf-8"?>
<!-- Generator: Adobe Illustrator 16.0.0, SVG Export Plug-In . SVG Version: 6.00 Build 0)  -->
<!DOCTYPE svg PUBLIC "-//W3C//DTD SVG 1.1//EN" "http://www.w3.org/Graphics/SVG/1.1/DTD/svg11.dtd">
<svg version="1.1" id="Layer_1" xmlns="http://www.w3.org/2000/svg" xmlns:xlink="http://www.w3.org/1999/xlink" x="0px" y="0px"
	 width="276.119px" height="106.163px" viewBox="0 0 276.119 106.163" enable-background="new 0 0 276.119 106.163"
	 xml:space="preserve">
<g>
	<path fill="#252525" d="M32.989,28.707c-3.295,1.04-2.296-5.235-2.296-6.922c0-4.94,6.631-6.879,9.598-3.787
		C37.94,21.663,35.533,25.264,32.989,28.707 M30.067,7.288c2.18-10.29-7.694-9.042-6.296-0.269
		C24.85,13.803,6.94,9.269,5.966,18.821c3.438,3.524,8.642,1.794,12.721,1.297c4.673-0.571,7.029-0.346,7.029,4.855
		c0,3.892-0.061,7.789,0.157,11.674c0.251,4.461-5.887,12.994-8.48,16.798c-3.745,5.5-7.879,10.604-11.854,15.894
		c-2.098,2.793-4.369,4.648-5.54,8.03c1.208,2.546,3.038,2.396,5.206,1.287c7.559-3.866,14.553-10.604,18.259-19.538
		c7.286,8.806-5.413,22.436-0.707,32.388c4.138,8.751,7.439-12.984,7.61-14.428c0.781-6.588-0.957-12.335-0.547-18.906
		c0.443-7.006,2.099-14.332,5.21-20.458c1.282-2.521,3.914-3.461,5.714-5.586c2.414-2.852,4.111-6.391,5.359-10.046
		c1.496-4.379,5.942-15.75-0.935-16.208C40.476,5.561,34.358,11.207,30.067,7.288"/>
	<path fill="#252525" d="M140.919,36.617c-6.371,2.116-6.953-21.511-7.996-26.721c-0.942-4.715-0.968-7.542-5.314-7.542
		c-2.435,0-1.56,11.023-1.246,13.009c0.761,4.872,2.376,9.498,3.392,14.296c0.541,2.557,0.907,5.153,0.975,7.782
		c0.108,4.12-1.247,2.965-4.158,4.319c-4.37,2.031-8.378,4.979-12.271,7.967c-3.441,2.641-8.862,5.328-11.458,9.003
		c-2.644,3.745,2.269,6.604,5.068,5.95c2.995-0.69,5.463-2.661,7.678-4.942c4.77-4.91,8.873-9.27,15.831-7.128
		c-0.103,5.139,0.392,10.273,0.173,15.413c-0.203,4.868-2.039,9.113-1.95,14.25c0.093,5.218,0.797,10.586,0.161,15.783
		c-0.436,3.527-1.558,8.26,3.078,8.103c8.883-10.968,4.963-27.447,3.716-40.605c-0.7-7.411-2.007-15.318,3.725-20.287
		c1.681-1.459,3.718-1.125,5.028-3.643C147.091,38.267,143.589,35.731,140.919,36.617"/>
	<path fill="#252525" d="M62.61,21.334c0.752-2.329-2.201-7.419-4.725-5.612c-2.909,2.087-2.104,6.336-3.329,9.442
		c-3.174,8.049-3.327,15.146-3.327,23.834c0,5.573-0.782,10.654-1.06,15.962c-0.46,8.843,0.558,17.62-1.603,26.25
		c-1.115,4.452-4.256,14.314,2.524,14.826c8.075,0.61,6.625-13.121,6.081-18.659c0.479-11.154,1.037-22.82,2.268-33.888
		C60.562,43.398,63.866,31.465,62.61,21.334"/>
	<path fill="#252525" d="M235.371,75.811c-0.241,1.508-1.118,4.864-2.446,5.593c-2.263,1.24-4.454-1.471-3.751-4.046
		c-0.122-2.241-1.772-8.096,1.752-8.292C234.26,67.34,235.795,73.182,235.371,75.811 M238.178,84.741
		c2.268-7.649,7.652-13.578,5.114-22.246c-6.823,0.367-15.079-3.654-21.385,0.592c-4.057,2.729-9.071,7.646-13.52,2.495
		c-2.736-3.166-3.071-8.292-3.895-12.381c-0.742-3.722-1.969-8.315-5.946-8.697c-4.307-0.413-4.422,1.669-4.854,5.983
		c-0.434,4.322-0.66,8.801-1.911,12.949c-2.21,7.335-11.896,28.567-1.076,32.014c6.49-8.315,5.934-20.897,10.226-30.484
		c3.763,2.036,9.614,13.202,14.532,10.355c2.123-1.233,2.228-4.198,5.188-3.762c1.572,4.06,1.256,8.691,2.017,12.965
		c0.972,5.443,2.435,4.791,6.332,6.637c2.702,1.279,5.452,3.073,8.417,3.392c1.779,0.188,6.437-1.575,4.812-4.498
		C240.928,87.719,237.593,88.509,238.178,84.741"/>
	<path fill="#252525" d="M174.034,47.412c2.456,10.165-6.216,14.421-11.274,20.691c-3.519,4.363-6.448,12.126-5.954,18.054
		c0.771,9.257,10.929,3.266,14.093-0.473c3.014-3.566,5.378-7.745,8.301-11.4c1.776-2.217,7.048-7.7,6.432-1.303
		c-0.711,7.416-8.885,23.526-15.343,24.959c-4.376,0.971-7.439,3.412-12.011,1.226c-3.348-1.605-5.166-5.1-6.11-8.897
		c-1.088-4.389-1.305-8.996-1.814-13.492c-0.589-5.144-3.444-9.774,1.233-13.003c4.578-3.158,7.651-4.363,11.258-9.061
		C165.854,50.791,169.281,47.799,174.034,47.412"/>
	<path fill="#252525" d="M76.179,69.858c3.467-4.055,7.549-7.416,9.494-13.182C79.468,54.482,78.104,64.509,76.179,69.858
		 M87.866,46.79c9.671,5.943,9.598,20.433,11.208,31.127c0.853,5.655,0.994,11.602,7.27,9.787c4.565-1.32,6.79-6.873,11.466-7.962
		c3.307,5.443-1.761,8.39-4.075,12.514c-1.968,3.504-1.859,3.157-5.908,4.083c-2.968,0.678-6.133,1.289-8.737-0.943
		c-3.75-3.214-6.172-31.812-11.494-26.418c-4.966,5.039-8.178,12.22-14.334,15.709c-3.151-0.293-5.132-2.587-6.526-5.587
		c-1.806-3.866-0.79-4.639,0.655-8.448C71.644,59.422,74.833,46.593,87.866,46.79"/>
	<path fill="#252525" d="M276.119,91.33c-2.978,6.971-15.882,15.58-21.912,6.59C255.355,89.595,270.957,87.226,276.119,91.33"/>
</g>
</svg>
