<?xml version="1.0" encoding="utf-8"?>
<!-- Generator: Adobe Illustrator 16.0.0, SVG Export Plug-In . SVG Version: 6.00 Build 0)  -->
<!DOCTYPE svg PUBLIC "-//W3C//DTD SVG 1.1//EN" "http://www.w3.org/Graphics/SVG/1.1/DTD/svg11.dtd">
<svg version="1.1" id="Layer_1" xmlns="http://www.w3.org/2000/svg" xmlns:xlink="http://www.w3.org/1999/xlink" x="0px" y="0px"
	 width="841.89px" height="595.28px" viewBox="0 0 841.89 595.28" enable-background="new 0 0 841.89 595.28" xml:space="preserve">
<path fill="#6D6C6C" d="M230.388,190.292c-11.893,0-21.534,9.641-21.534,21.534s9.641,21.534,21.534,21.534
	s21.534-9.641,21.534-21.534S242.28,190.292,230.388,190.292z M228.162,223.408c-0.275,0.276-0.636,0.414-0.998,0.414
	c-0.361,0-0.722-0.138-0.998-0.414c-0.551-0.551-0.551-1.445,0-1.996l9.588-9.587l-9.588-9.587c-0.551-0.551-0.551-1.445,0-1.997
	c0.552-0.551,1.445-0.551,1.996,0l11.583,11.583L228.162,223.408z"/>
<polyline fill="#FFFFFF" stroke="#6D6C6C" stroke-width="3" stroke-linecap="round" stroke-miterlimit="10" points="167.19,200.576 
	178.44,211.826 167.19,223.076 "/>
</svg>
